<svg width="100" height="100" viewBox="0 0 100 100" fill="none" xmlns="http://www.w3.org/2000/svg">
<path d="M92.1875 23.4375H89.0625V21.875H90.625C91.8682 21.875 93.0605 21.3811 93.9396 20.5021C94.8186 19.623 95.3125 18.4307 95.3125 17.1875C95.3125 15.9443 94.8186 14.752 93.9396 13.8729C93.0605 12.9939 91.8682 12.5 90.625 12.5H89.0625V4.68751C89.0648 4.44287 89.0077 4.20134 88.8961 3.98363C88.7845 3.76592 88.6218 3.57852 88.4219 3.43751C88.2283 3.29096 88.003 3.19198 87.7642 3.14856C87.5253 3.10513 87.2796 3.11847 87.0469 3.1875L66.9531 9.375H56.25C55.8356 9.375 55.4382 9.53963 55.1451 9.83265C54.8521 10.1257 54.6875 10.5231 54.6875 10.9375V12.5H51.5625C51.1481 12.5 50.7507 12.6646 50.4576 12.9577C50.1646 13.2507 50 13.6481 50 14.0625V20.3125C50 20.7269 50.1646 21.1243 50.4576 21.4174C50.7507 21.7104 51.1481 21.875 51.5625 21.875H54.6875V23.4375H45.3125V9.375C45.3125 8.9606 45.1479 8.56318 44.8549 8.27015C44.5618 7.97713 44.1644 7.81251 43.75 7.81251H12.5C12.0856 7.81251 11.6882 7.97713 11.3951 8.27015C11.1021 8.56318 10.9375 8.9606 10.9375 9.375V23.4375H7.8125C6.57044 23.4412 5.38031 23.9363 4.50203 24.8145C3.62376 25.6928 3.12871 26.8829 3.125 28.125V78.125C3.12871 79.3671 3.62376 80.5572 4.50203 81.4355C5.38031 82.3137 6.57044 82.8088 7.8125 82.8125H43.75V87.5H34.375C33.9606 87.5 33.5632 87.6646 33.2701 87.9576C32.9771 88.2507 32.8125 88.6481 32.8125 89.0625V95.3125C32.8125 95.7269 32.9771 96.1243 33.2701 96.4174C33.5632 96.7104 33.9606 96.875 34.375 96.875H65.625C66.0394 96.875 66.4368 96.7104 66.7299 96.4174C67.0229 96.1243 67.1875 95.7269 67.1875 95.3125V89.0625C67.1875 88.6481 67.0229 88.2507 66.7299 87.9576C66.4368 87.6646 66.0394 87.5 65.625 87.5H56.25V82.8125H92.1875C93.4296 82.8088 94.6197 82.3137 95.498 81.4355C96.3762 80.5572 96.8713 79.3671 96.875 78.125V28.125C96.8713 26.8829 96.3762 25.6928 95.498 24.8145C94.6197 23.9363 93.4296 23.4412 92.1875 23.4375ZM89.0625 15.625H90.625C91.0394 15.625 91.4368 15.7896 91.7299 16.0827C92.0229 16.3757 92.1875 16.7731 92.1875 17.1875C92.1875 17.6019 92.0229 17.9993 91.7299 18.2924C91.4368 18.5854 91.0394 18.75 90.625 18.75H89.0625V15.625ZM68.75 12.0938L85.9375 6.79688V27.5781L68.75 22.2813V12.0938ZM57.8125 12.5H65.625V21.875H57.8125V12.5ZM62.2656 25L61.1406 32.8125H59.375V25H62.2656ZM53.125 18.75V15.625H54.6875V18.75H53.125ZM14.0625 10.9375H42.1875V32.8125H14.0625V10.9375ZM64.0625 90.625V93.75H35.9375V90.625H64.0625ZM46.875 87.5V82.8125H53.125V87.5H46.875ZM93.75 78.125C93.75 78.5394 93.5854 78.9368 93.2924 79.2299C92.9993 79.5229 92.6019 79.6875 92.1875 79.6875H7.8125C7.3981 79.6875 7.00067 79.5229 6.70765 79.2299C6.41462 78.9368 6.25 78.5394 6.25 78.125V76.5625H93.75V78.125ZM93.75 73.4375H6.25V28.125C6.25 27.7106 6.41462 27.3132 6.70765 27.0201C7.00067 26.7271 7.3981 26.5625 7.8125 26.5625H10.9375V34.375C10.9375 34.7894 11.1021 35.1868 11.3951 35.4799C11.6882 35.7729 12.0856 35.9375 12.5 35.9375H43.75C44.1644 35.9375 44.5618 35.7729 44.8549 35.4799C45.1479 35.1868 45.3125 34.7894 45.3125 34.375V26.5625H56.25V34.375C56.25 34.7894 56.4146 35.1868 56.7076 35.4799C57.0007 35.7729 57.3981 35.9375 57.8125 35.9375H62.5C62.8765 35.9374 63.2402 35.8015 63.5245 35.5546C63.8087 35.3077 63.9942 34.9665 64.0469 34.5938L65.4219 25H66.9531L87.0469 31.1875C87.1936 31.2323 87.3466 31.2534 87.5 31.25C87.9125 31.244 88.3064 31.0774 88.5982 30.7857C88.8899 30.4939 89.0564 30.1 89.0625 29.6875V26.5625H92.1875C92.6019 26.5625 92.9993 26.7271 93.2924 27.0201C93.5854 27.3132 93.75 27.7106 93.75 28.125V73.4375Z" fill="#4DC28A"/>
<path d="M10.9375 70.3125H51.5625C51.9769 70.3125 52.3743 70.1479 52.6674 69.8549C52.9604 69.5618 53.125 69.1644 53.125 68.75V43.75C53.125 43.3356 52.9604 42.9382 52.6674 42.6451C52.3743 42.3521 51.9769 42.1875 51.5625 42.1875H10.9375C10.5231 42.1875 10.1257 42.3521 9.83265 42.6451C9.53962 42.9382 9.375 43.3356 9.375 43.75V68.75C9.375 69.1644 9.53962 69.5618 9.83265 69.8549C10.1257 70.1479 10.5231 70.3125 10.9375 70.3125ZM12.5 67.1875V46.5453L30.4312 57.5813C30.6775 57.7327 30.9609 57.8129 31.25 57.8129C31.5391 57.8129 31.8225 57.7327 32.0688 57.5813L50 46.5453V67.1875H12.5ZM16.4578 45.3125H46.0422L31.25 54.4156L16.4578 45.3125Z" fill="#4DC28A"/>
<path d="M57.8125 60.9375H60.9375V65.625C60.9375 66.0394 61.1021 66.4368 61.3951 66.7299C61.6882 67.0229 62.0856 67.1875 62.5 67.1875H89.0625C89.4769 67.1875 89.8743 67.0229 90.1674 66.7299C90.4604 66.4368 90.625 66.0394 90.625 65.625V46.875C90.625 46.4606 90.4604 46.0632 90.1674 45.7701C89.8743 45.4771 89.4769 45.3125 89.0625 45.3125H87.5V40.625C87.5 40.2106 87.3354 39.8132 87.0424 39.5201C86.7493 39.2271 86.3519 39.0625 85.9375 39.0625H57.8125C57.3981 39.0625 57.0007 39.2271 56.7076 39.5201C56.4146 39.8132 56.25 40.2106 56.25 40.625V59.375C56.25 59.7894 56.4146 60.1868 56.7076 60.4799C57.0007 60.7729 57.3981 60.9375 57.8125 60.9375ZM87.5 64.0625H64.0625V48.4375H87.5V64.0625ZM59.375 42.1875H84.375V45.3125H62.5C62.0856 45.3125 61.6882 45.4771 61.3951 45.7701C61.1021 46.0632 60.9375 46.4606 60.9375 46.875V57.8125H59.375V42.1875Z" fill="#4DC28A"/>
<path d="M67.1875 51.5625H70.3125V54.6875H67.1875V51.5625Z" fill="#4DC28A"/>
<path d="M73.4375 51.5625H84.375V54.6875H73.4375V51.5625Z" fill="#4DC28A"/>
<path d="M67.1875 57.8125H73.4375V60.9375H67.1875V57.8125Z" fill="#4DC28A"/>
<path d="M76.5625 57.8125H84.375V60.9375H76.5625V57.8125Z" fill="#4DC28A"/>
<path d="M24.1781 27.8922C24.4047 28.0323 24.6633 28.1121 24.9293 28.1242C25.1954 28.1362 25.4602 28.08 25.6984 27.9609L35.0734 23.2734C35.3335 23.1439 35.5522 22.9443 35.7051 22.6973C35.858 22.4503 35.939 22.1655 35.939 21.875C35.939 21.5845 35.858 21.2997 35.7051 21.0527C35.5522 20.8057 35.3335 20.6062 35.0734 20.4766L25.6984 15.7891C25.4602 15.67 25.1954 15.6138 24.9293 15.6259C24.6632 15.6379 24.4046 15.7178 24.1781 15.8579C23.9515 15.998 23.7646 16.1938 23.635 16.4265C23.5054 16.6592 23.4374 16.9211 23.4375 17.1875V26.5625C23.4374 26.8289 23.5053 27.0909 23.635 27.3236C23.7646 27.5564 23.9516 27.7521 24.1781 27.8922ZM26.5625 19.7156L30.8813 21.875L26.5625 24.0344V19.7156Z" fill="#4DC28A"/>
</svg>
