<svg width="100" height="100" viewBox="0 0 100 100" fill="none" xmlns="http://www.w3.org/2000/svg">
<path d="M37.5 20.3484H34.375C33.5125 20.3484 32.8125 19.6469 32.8125 18.7859H29.6875C29.6875 21.3703 31.7906 23.4734 34.375 23.4734H37.5C40.0844 23.4734 42.1875 21.3703 42.1875 18.7859C42.1875 16.2016 40.0844 14.0984 37.5 14.0984H34.375C33.5125 14.0984 32.8125 13.3969 32.8125 12.5359C32.8125 11.675 33.5125 10.9734 34.375 10.9734H37.5C38.3625 10.9734 39.0625 11.675 39.0625 12.5359H42.1875C42.1875 9.95156 40.0844 7.84843 37.5 7.84843H34.375C31.7906 7.84843 29.6875 9.95156 29.6875 12.5359C29.6875 15.1203 31.7906 17.2234 34.375 17.2234H37.5C38.3625 17.2234 39.0625 17.925 39.0625 18.7859C39.0625 19.6469 38.3625 20.3484 37.5 20.3484Z" fill="#F77B54"/>
<path d="M50 23.4734H54.6875V20.3484H50C49.1375 20.3484 48.4375 19.6469 48.4375 18.7859V17.2234H54.6875V14.0984H48.4375V12.5359C48.4375 11.675 49.1375 10.9734 50 10.9734H54.6875V7.84843H50C47.4156 7.84843 45.3125 9.95156 45.3125 12.5359V18.7859C45.3125 21.3703 47.4156 23.4734 50 23.4734Z" fill="#F77B54"/>
<path d="M62.5 23.4734H65.625C68.2094 23.4734 70.3125 21.3703 70.3125 18.7859V12.5359C70.3125 9.95156 68.2094 7.84843 65.625 7.84843H62.5C59.9156 7.84843 57.8125 9.95156 57.8125 12.5359V18.7859C57.8125 21.3703 59.9156 23.4734 62.5 23.4734ZM60.9375 12.5359C60.9375 11.675 61.6375 10.9734 62.5 10.9734H65.625C66.4875 10.9734 67.1875 11.675 67.1875 12.5359V18.7859C67.1875 19.6469 66.4875 20.3484 65.625 20.3484H62.5C61.6375 20.3484 60.9375 19.6469 60.9375 18.7859V12.5359Z" fill="#F77B54"/>
<path d="M98.4375 35.9375H92.1875V31.25C92.1875 26.9422 88.6828 23.4375 84.375 23.4375H76.5625V6.28593C76.5625 3.70156 74.4594 1.59843 71.875 1.59843H28.125C25.5406 1.59843 23.4375 3.70156 23.4375 6.28593V23.4375H15.625C11.3172 23.4375 7.8125 26.9422 7.8125 31.25V40.7531C4.08281 42.9187 1.5625 46.9484 1.5625 51.5625C1.5625 56.1766 4.08281 60.2062 7.8125 62.3719V75C7.8125 79.3078 11.3172 82.8125 15.625 82.8125H34.375V89.0625H32.8125C28.5047 89.0625 25 92.5672 25 96.875V98.4375H75V96.875C75 92.5672 71.4953 89.0625 67.1875 89.0625H65.625V82.8125H84.375C88.6828 82.8125 92.1875 79.3078 92.1875 75V64.0625H98.4375V35.9375ZM26.5625 6.28593C26.5625 5.425 27.2625 4.72343 28.125 4.72343H71.875C72.7375 4.72343 73.4375 5.425 73.4375 6.28593V25.0359C73.4375 25.8969 72.7375 26.5984 71.875 26.5984H55.7781L46.6141 32.6734C46.0938 33.0234 45.3125 32.6016 45.3125 31.9734V26.5984H28.125C27.2625 26.5984 26.5625 25.8969 26.5625 25.0359V6.28593ZM10.9375 31.25C10.9375 28.6656 13.0406 26.5625 15.625 26.5625H23.7141C24.3516 28.3953 26.0766 29.7234 28.125 29.7234H42.1875V31.9734C42.1875 34.1594 43.9656 35.9375 46.1516 35.9375C46.9328 35.9375 47.6891 35.7094 48.3406 35.2781L56.7203 29.7234H71.875C73.9219 29.7234 75.6484 28.3953 76.2859 26.5625H84.375C86.9594 26.5625 89.0625 28.6656 89.0625 31.25V35.9375H76.5625V50H67.1875V42.1875H57.8125V60.9375H54.6875V39.0625H45.3125V60.9375H42.1875V45.3125H32.8125V50H26.4547C25.6812 43.8437 20.425 39.0625 14.0625 39.0625C12.9812 39.0625 11.9391 39.2141 10.9375 39.4734V31.25ZM60.9375 60.9375V45.3125H64.0625V60.9375H60.9375ZM51.5625 60.9375H48.4375V42.1875H51.5625V60.9375ZM39.0625 60.9375H35.9375V48.4375H39.0625V60.9375ZM4.6875 51.5625C4.6875 46.3922 8.89219 42.1875 14.0625 42.1875C19.2328 42.1875 23.4375 46.3922 23.4375 51.5625C23.4375 56.7328 19.2328 60.9375 14.0625 60.9375C8.89219 60.9375 4.6875 56.7328 4.6875 51.5625ZM71.6078 95.3125H28.3922C29.0375 93.4938 30.775 92.1875 32.8125 92.1875H67.1875C69.225 92.1875 70.9625 93.4938 71.6078 95.3125ZM62.5 89.0625H37.5V82.8125H62.5V89.0625ZM84.375 79.6875H15.625C13.0406 79.6875 10.9375 77.5844 10.9375 75V70.3125H89.0625V75C89.0625 77.5844 86.9594 79.6875 84.375 79.6875ZM89.0625 67.1875H10.9375V63.6516C11.9391 63.9109 12.9812 64.0625 14.0625 64.0625C20.425 64.0625 25.6812 59.2812 26.4547 53.125H32.8125V60.9375H29.6875V64.0625H70.3125V60.9375H67.1875V53.125H76.5625V64.0625H89.0625V67.1875ZM95.3125 60.9375H79.6875V39.0625H95.3125V60.9375Z" fill="#F77B54"/>
<path d="M43.75 76.5625C44.6129 76.5625 45.3125 75.8629 45.3125 75C45.3125 74.1371 44.6129 73.4375 43.75 73.4375C42.8871 73.4375 42.1875 74.1371 42.1875 75C42.1875 75.8629 42.8871 76.5625 43.75 76.5625Z" fill="#F77B54"/>
<path d="M50 76.5625C50.8629 76.5625 51.5625 75.8629 51.5625 75C51.5625 74.1371 50.8629 73.4375 50 73.4375C49.1371 73.4375 48.4375 74.1371 48.4375 75C48.4375 75.8629 49.1371 76.5625 50 76.5625Z" fill="#F77B54"/>
<path d="M56.25 76.5625C57.1129 76.5625 57.8125 75.8629 57.8125 75C57.8125 74.1371 57.1129 73.4375 56.25 73.4375C55.3871 73.4375 54.6875 74.1371 54.6875 75C54.6875 75.8629 55.3871 76.5625 56.25 76.5625Z" fill="#F77B54"/>
<path d="M20.3125 51.5625C20.3125 48.1156 17.5094 45.3125 14.0625 45.3125C10.6156 45.3125 7.8125 48.1156 7.8125 51.5625C7.8125 55.0094 10.6156 57.8125 14.0625 57.8125C17.5094 57.8125 20.3125 55.0094 20.3125 51.5625ZM10.9375 51.5625C10.9375 49.8391 12.3391 48.4375 14.0625 48.4375C15.7859 48.4375 17.1875 49.8391 17.1875 51.5625C17.1875 53.2859 15.7859 54.6875 14.0625 54.6875C12.3391 54.6875 10.9375 53.2859 10.9375 51.5625Z" fill="#F77B54"/>
<path d="M82.8125 42.1875H92.1875V45.3125H82.8125V42.1875Z" fill="#F77B54"/>
<path d="M82.8125 48.4375H92.1875V51.5625H82.8125V48.4375Z" fill="#F77B54"/>
<path d="M82.8125 54.6875H92.1875V57.8125H82.8125V54.6875Z" fill="#F77B54"/>
</svg>
