<svg width="100" height="100" viewBox="0 0 100 100" fill="none" xmlns="http://www.w3.org/2000/svg">
<path d="M18.274 10.7951C14.6307 10.7951 11.6666 13.7582 11.6666 17.4C11.6666 21.0418 14.6307 24.0049 18.274 24.0049C21.9203 24.0049 24.8869 21.0418 24.8869 17.4C24.8869 13.7582 21.9203 10.7951 18.274 10.7951ZM18.274 20.0658C16.8027 20.0658 15.6059 18.8699 15.6059 17.4C15.6059 15.9301 16.8027 14.7344 18.274 14.7344C19.7482 14.7344 20.9478 15.9303 20.9478 17.4002C20.9478 18.8701 19.7482 20.0658 18.274 20.0658Z" fill="#8F61DB"/>
<path d="M76.0477 10.7951H58.5811C54.9377 10.7951 51.9736 13.7582 51.9736 17.4C51.9736 21.0418 54.9377 24.0049 58.5811 24.0049H76.0477C79.691 24.0049 82.6551 21.0418 82.6551 17.4C82.6551 13.7582 79.691 10.7951 76.0477 10.7951ZM76.0477 20.0658H58.5811C57.1098 20.0658 55.9129 18.8699 55.9129 17.4C55.9129 15.9301 57.11 14.7342 58.5811 14.7342H76.0477C77.5189 14.7342 78.7158 15.9301 78.7158 17.4C78.7158 18.8699 77.5189 20.0658 76.0477 20.0658Z" fill="#8F61DB"/>
<path d="M35.3975 10.7951C31.7541 10.7951 28.79 13.7582 28.79 17.4C28.79 21.0418 31.7541 24.0049 35.3975 24.0049C39.0438 24.0049 42.0104 21.0418 42.0104 17.4C42.0104 13.7582 39.0438 10.7951 35.3975 10.7951ZM35.3975 20.0658C33.9262 20.0658 32.7293 18.8699 32.7293 17.4C32.7293 15.9301 33.9264 14.7342 35.3975 14.7342C36.8717 14.7342 38.0713 15.9301 38.0713 17.4C38.0713 18.8699 36.8717 20.0658 35.3975 20.0658Z" fill="#8F61DB"/>
<path d="M32.1859 43.4461C31.1283 43.1928 30.0652 43.8457 29.8125 44.9039L25.9051 61.2551C25.6523 62.3131 26.3049 63.3758 27.3629 63.6285C27.5168 63.6652 27.6709 63.683 27.8225 63.683C28.7129 63.683 29.5203 63.0748 29.7363 62.1707L33.6437 45.8195C33.8967 44.7615 33.2439 43.699 32.1859 43.4461Z" fill="#8F61DB"/>
<path d="M39.417 61.7068C39.7924 62.0412 40.2603 62.2057 40.7264 62.2057C41.2687 62.2057 41.8088 61.983 42.198 61.5461L47.7211 55.3461C48.6324 54.3316 48.6324 52.743 47.7267 51.735L42.1978 45.5285C41.474 44.716 40.2289 44.6445 39.417 45.3678C38.6045 46.0914 38.5326 47.3365 39.2562 48.1486L44.0564 53.5371L39.2562 58.9258C38.5328 59.7383 38.6047 60.9834 39.417 61.7068Z" fill="#8F61DB"/>
<path d="M20.132 45.368C19.3195 44.6443 18.0748 44.7168 17.3512 45.5287L11.8287 51.7281C10.9162 52.7428 10.9162 54.3322 11.8225 55.3399L17.3514 61.5463C17.7406 61.9834 18.2805 62.2059 18.823 62.2059C19.2891 62.2059 19.7572 62.0414 20.1324 61.707C20.9449 60.9834 21.0168 59.7383 20.2932 58.9262L15.493 53.5377L20.2932 48.149C21.0164 47.3365 20.9445 46.0914 20.132 45.368Z" fill="#8F61DB"/>
<path d="M95.5842 66.3148H94.8529C94.4699 65.0742 93.9736 63.8766 93.3682 62.732L93.89 62.2084C94.7234 61.3801 95.1834 60.274 95.1852 59.0939C95.1869 57.9111 94.7285 56.8006 93.8941 55.9664L92.8773 54.9502V12.9971C92.8773 7.12227 88.7316 2.34297 83.6355 2.34297H9.2418C4.1457 2.34297 0 7.12227 0 12.9971V68.0465C0 73.9213 4.1457 78.7006 9.2418 78.7006H20.7977C21.8854 78.7006 22.7672 77.8188 22.7672 76.7311C22.7672 75.6434 21.8854 74.7615 20.7977 74.7615H9.2418C6.36758 74.7615 3.93926 71.6863 3.93926 68.0467V32.3135H88.9379V52.2168C88.7135 52.1822 88.4861 52.1596 88.2547 52.1596C88.2523 52.1596 88.25 52.1596 88.2479 52.1596C87.0678 52.1615 85.9617 52.6209 85.1398 53.4473L84.6074 53.9773C83.4389 53.36 82.2219 52.8578 80.967 52.4744V51.7729C80.967 49.3385 78.9861 47.3582 76.5512 47.3582H72.9869C70.5551 47.3582 68.5768 49.3385 68.5768 51.7729V52.5225C67.3455 52.9094 66.1566 53.4072 65.0203 54.0119L64.5102 53.5033C63.6816 52.6707 62.5754 52.2109 61.3953 52.2092C61.3932 52.2092 61.391 52.2092 61.3887 52.2092C60.2084 52.2092 59.1002 52.6672 58.2676 53.4992L55.7494 56.0162C54.915 56.8502 54.4566 57.9609 54.4584 59.1436C54.4602 60.3236 54.9199 61.4297 55.7471 62.2516L56.291 62.7971C55.7006 63.924 55.2156 65.0996 54.8404 66.3145H54.0924C51.6604 66.3145 49.682 68.2922 49.682 70.7234V74.2912C49.682 74.4498 49.6908 74.6064 49.7072 74.7607H38.2473C37.1596 74.7607 36.2777 75.6426 36.2777 76.7303C36.2777 77.818 37.1596 78.6998 38.2473 78.6998H54.0922H54.8479C55.2287 79.9262 55.7211 81.1111 56.3217 82.2455L55.7895 82.7754C54.076 84.498 54.0775 87.2947 55.7936 89.0094L58.3131 91.5279C59.1416 92.3605 60.2478 92.8203 61.4279 92.8221H61.4344C62.6148 92.8221 63.723 92.3641 64.5557 91.5318L65.0832 91.0047C66.2277 91.608 67.4178 92.101 68.6428 92.4797V93.242C68.6428 95.6764 70.6211 97.6566 73.0531 97.6566H76.6228C79.0547 97.6566 81.033 95.6764 81.033 93.242V92.4844C82.2695 92.1029 83.4645 91.608 84.6076 91.0045L85.1328 91.5277C85.9611 92.3605 87.0672 92.8201 88.2473 92.8221H88.2541C89.4344 92.8221 90.5426 92.3641 91.3768 91.5305L93.8895 89.0135C94.7228 88.1852 95.1828 87.0791 95.1846 85.899C95.1863 84.7162 94.7279 83.6057 93.8934 82.7715L93.3678 82.2461C93.9672 81.1107 94.4592 79.925 94.8395 78.7H95.5838C98.0188 78.7 99.9996 76.7223 99.9996 74.2912V70.7234C100 68.2926 98.0191 66.3148 95.5842 66.3148ZM3.93926 28.3742V12.9971C3.93926 9.35742 6.36758 6.28223 9.2418 6.28223H83.6355C86.5098 6.28223 88.9381 9.35742 88.9381 12.9971V28.3744L3.93926 28.3742ZM96.0607 74.2916C96.0607 74.5418 95.8381 74.7611 95.584 74.7611H93.3316C92.4133 74.7611 91.6168 75.3957 91.4117 76.2908C90.9863 78.1473 90.2557 79.9078 89.2398 81.524C88.7506 82.3024 88.8648 83.3156 89.5152 83.9654L91.109 85.5582C91.2281 85.6774 91.2457 85.8195 91.2457 85.8938C91.2455 85.9824 91.2225 86.1111 91.1074 86.2252L88.591 88.7461C88.4717 88.8652 88.3293 88.8832 88.2543 88.8832C88.2541 88.8832 88.2539 88.8832 88.2539 88.8832C88.1645 88.8832 88.0353 88.86 87.9199 88.7438L86.3203 87.1508C85.6697 86.5029 84.6584 86.3906 83.8816 86.8789C82.2631 87.8971 80.4951 88.6289 78.6266 89.0541C77.7303 89.2584 77.0941 90.0553 77.0941 90.9748V93.2426C77.0941 93.4957 76.874 93.718 76.6232 93.718H73.0535C72.8025 93.718 72.5824 93.4959 72.5824 93.2426V90.9691C72.5824 90.0488 71.9449 89.251 71.0473 89.048C69.2025 88.6309 67.4377 87.9002 65.8022 86.8768C65.4799 86.675 65.1178 86.5766 64.7578 86.5766C64.249 86.5766 63.7447 86.7732 63.3648 87.1533L61.7713 88.7461C61.652 88.8652 61.5096 88.8832 61.4346 88.8832C61.4344 88.8832 61.4342 88.8832 61.434 88.8832C61.3447 88.8832 61.2154 88.86 61.1023 88.7463L58.5787 86.2238C58.402 86.0473 58.4039 85.7344 58.5764 85.5609L60.1758 83.968C60.8293 83.3172 60.9436 82.3004 60.4512 81.5207C59.4338 79.9098 58.7021 78.1504 58.2764 76.2914C58.0713 75.3963 57.2748 74.7615 56.3563 74.7615H54.0926C53.8373 74.7615 53.6215 74.5465 53.6215 74.292V70.7242C53.6215 70.4697 53.8373 70.2545 54.0926 70.2545H56.3506C57.2699 70.2545 58.0672 69.6184 58.2713 68.7221C58.6916 66.875 59.4139 65.1229 60.418 63.5139C60.9027 62.7371 60.7883 61.7287 60.1416 61.0803L58.5303 59.4643C58.4209 59.3557 58.3979 59.227 58.3977 59.1383C58.3977 59.0641 58.4152 58.9219 58.5344 58.8029L61.0523 56.2861C61.1717 56.167 61.3141 56.149 61.3891 56.149H61.3896C61.4789 56.1492 61.6082 56.1723 61.7236 56.2885L63.3119 57.8705C63.9645 58.5203 64.9795 58.6316 65.7564 58.1387C67.3658 57.1184 69.1285 56.3793 70.9953 55.9424C71.8859 55.734 72.5158 54.9395 72.5158 54.0246V51.7734C72.5158 51.5158 72.7314 51.298 72.9867 51.298H76.551C76.8094 51.298 77.0277 51.5158 77.0277 51.7734V53.9914C77.0277 54.9143 77.6684 55.7133 78.5693 55.9139C80.4434 56.3312 82.2312 57.0684 83.8834 58.1049C84.6598 58.5916 85.6701 58.4791 86.3201 57.8318L87.9262 56.2322C88.0352 56.1227 88.1643 56.0996 88.2535 56.0994H88.2541C88.3291 56.0994 88.4715 56.1174 88.5906 56.2365L91.1088 58.7531C91.2279 58.8723 91.2455 59.0145 91.2455 59.0887C91.2453 59.1773 91.2223 59.3061 91.1064 59.4211L89.5125 61.0197C88.8635 61.6707 88.751 62.684 89.2414 63.4613C90.2611 65.0779 90.9947 66.8482 91.4221 68.7229C91.6264 69.6189 92.4232 70.2547 93.3426 70.2547H95.584C95.8379 70.2547 96.0607 70.4744 96.0607 70.7244V74.2916Z" fill="#8F61DB"/>
<path d="M74.8412 60.4789C68.2041 60.4789 62.8045 65.8762 62.8045 72.5104C62.8045 79.1414 68.2041 84.5363 74.8412 84.5363C81.4754 84.5363 86.8725 79.1416 86.8725 72.5104C86.8725 65.8764 81.4754 60.4789 74.8412 60.4789ZM74.8412 80.5971C70.3764 80.5971 66.7438 76.9693 66.7438 72.5104C66.7438 68.0482 70.3764 64.4182 74.8412 64.4182C79.3031 64.4182 82.9332 68.0482 82.9332 72.5104C82.9332 76.9693 79.3029 80.5971 74.8412 80.5971Z" fill="#8F61DB"/>
<path d="M29.5809 74.7613H29.5422C28.4545 74.7613 27.5727 75.6432 27.5727 76.7309C27.5727 77.8185 28.4545 78.7004 29.5422 78.7004H29.5809C30.6686 78.7004 31.5504 77.8185 31.5504 76.7309C31.5504 75.6432 30.6686 74.7613 29.5809 74.7613Z" fill="#8F61DB"/>
</svg>
