<svg width="50" height="49" viewBox="0 0 50 49" fill="none" xmlns="http://www.w3.org/2000/svg">
<circle cx="25.4766" cy="24.4922" r="23.7719" stroke="white" stroke-width="1.44072"/>
<g clip-path="url(#clip0_1_1382)">
<path d="M31.588 10.3733H19.9416C15.2084 10.3733 11.3576 14.224 11.3576 18.9573V30.6037C11.3576 35.3369 15.2084 39.1877 19.9416 39.1877H31.588C36.3213 39.1877 40.172 35.3369 40.172 30.6037V18.9573C40.172 14.224 36.3212 10.3733 31.588 10.3733ZM37.2733 30.6037C37.2733 33.7436 34.7279 36.289 31.588 36.289H19.9416C16.8017 36.289 14.2563 33.7436 14.2563 30.6037V18.9573C14.2563 15.8174 16.8017 13.272 19.9416 13.272H31.588C34.7279 13.272 37.2733 15.8174 37.2733 18.9573V30.6037Z" fill="url(#paint0_linear_1_1382)"/>
<path d="M25.7651 17.3281C21.6558 17.3281 18.3127 20.6713 18.3127 24.7805C18.3127 28.8897 21.6558 32.2329 25.7651 32.2329C29.8744 32.2329 33.2175 28.8898 33.2175 24.7805C33.2175 20.6712 29.8744 17.3281 25.7651 17.3281ZM25.7651 29.3343C23.2502 29.3343 21.2114 27.2955 21.2114 24.7806C21.2114 22.2656 23.2502 20.2269 25.7651 20.2269C28.2801 20.2269 30.3188 22.2656 30.3188 24.7806C30.3188 27.2955 28.28 29.3343 25.7651 29.3343Z" fill="url(#paint1_linear_1_1382)"/>
<path d="M33.2321 19.1697C34.2184 19.1697 35.0179 18.3701 35.0179 17.3839C35.0179 16.3977 34.2184 15.5981 33.2321 15.5981C32.2459 15.5981 31.4464 16.3977 31.4464 17.3839C31.4464 18.3701 32.2459 19.1697 33.2321 19.1697Z" fill="url(#paint2_linear_1_1382)"/>
</g>
<defs>
<linearGradient id="paint0_linear_1_1382" x1="25.7648" y1="39.1038" x2="25.7648" y2="10.5971" gradientUnits="userSpaceOnUse">
<stop stop-color="#E09B3D"/>
<stop offset="0.3" stop-color="#C74C4D"/>
<stop offset="0.6" stop-color="#C21975"/>
<stop offset="1" stop-color="#7024C4"/>
</linearGradient>
<linearGradient id="paint1_linear_1_1382" x1="25.7651" y1="39.1039" x2="25.7651" y2="10.5972" gradientUnits="userSpaceOnUse">
<stop stop-color="#E09B3D"/>
<stop offset="0.3" stop-color="#C74C4D"/>
<stop offset="0.6" stop-color="#C21975"/>
<stop offset="1" stop-color="#7024C4"/>
</linearGradient>
<linearGradient id="paint2_linear_1_1382" x1="33.2321" y1="39.1037" x2="33.2321" y2="10.597" gradientUnits="userSpaceOnUse">
<stop stop-color="#E09B3D"/>
<stop offset="0.3" stop-color="#C74C4D"/>
<stop offset="0.6" stop-color="#C21975"/>
<stop offset="1" stop-color="#7024C4"/>
</linearGradient>
<clipPath id="clip0_1_1382">
<rect width="28.8144" height="28.8144" fill="white" transform="translate(11.3576 10.3733)"/>
</clipPath>
</defs>
</svg>
