<svg width="50" height="49" viewBox="0 0 50 49" fill="none" xmlns="http://www.w3.org/2000/svg">
<circle cx="25.461" cy="24.4922" r="23.7719" stroke="white" stroke-width="1.44072"/>
<g clip-path="url(#clip0_1_1375)">
<path d="M25.7488 39.7639C33.7057 39.7639 40.156 33.3135 40.156 25.3567C40.156 17.3998 33.7057 10.9495 25.7488 10.9495C17.7919 10.9495 11.3416 17.3998 11.3416 25.3567C11.3416 33.3135 17.7919 39.7639 25.7488 39.7639Z" fill="#3B5998"/>
<path d="M29.3708 25.9205H26.8V35.3387H22.9051V25.9205H21.0526V22.6106H22.9051V20.4687C22.9051 18.937 23.6326 16.5386 26.8347 16.5386L29.7198 16.5506V19.7635H27.6265C27.2831 19.7635 26.8003 19.935 26.8003 20.6657V22.6137H29.7111L29.3708 25.9205Z" fill="white"/>
</g>
<defs>
<clipPath id="clip0_1_1375">
<rect width="28.8144" height="28.8144" fill="white" transform="translate(11.3416 10.9495)"/>
</clipPath>
</defs>
</svg>
