<svg width="100" height="100" viewBox="0 0 100 100" fill="none" xmlns="http://www.w3.org/2000/svg">
<path d="M95 26.3C95 14.6 85.4 5.10001 73.7 5.10001C62 5.10001 52.4 14.6 52.4 26.3C52.4 26.9 52.4 27.6 52.5 28.2C46.2 28.4 40.1 30.9 35.7 35.4C29.4 41.7 27 51 29.4 59.5C27.4 58.8 25.3 58.3 23.1 58.3C13.2 58.3 5.10001 66.4 5.10001 76.3C5.10001 86.2 13.2 94.3 23.1 94.3C33 94.3 41.1 86.2 41.1 76.3C41.1 75.6 41.1 74.9 41 74.3C44.8 76.4 49 77.6 53.3 77.6C55.6 77.6 57.9 77.3 60.2 76.6L63.2 86.5C63.4 87.1 63.9 87.5 64.6 87.6H64.7C65.3 87.6 65.8 87.2 66.1 86.7L69.7 78.3L75.2 83.8C75.8 84.4 76.7 84.4 77.3 83.8L84.3 76.9C84.6 76.6 84.7 76.2 84.7 75.8C84.7 75.4 84.5 75 84.3 74.7L78.8 69.2L87.2 65.6C87.8 65.4 88.1 64.8 88.1 64.1C88.1 63.5 87.6 62.9 87 62.7L77 59.7C78.2 55.6 78.3 51.3 77.3 47.2C87.3 45.6 95 36.9 95 26.3ZM64.5 45.5C66.7 48.8 67.3 52.8 66.2 56.6L61.3 55.1C62.1 52.2 61.3 49.1 59.1 47C55.8 43.7 50.4 43.7 47.1 47C45.5 48.6 44.6 50.7 44.6 53C44.6 55.3 45.5 57.4 47.1 59C48.7 60.6 50.9 61.5 53.1 61.5C53.8 61.5 54.5 61.4 55.3 61.2L56.8 66.1C52.1 67.4 47 66.1 43.5 62.6C40.9 60 39.5 56.6 39.5 53C39.5 49.4 40.9 46 43.5 43.4C47.1 39.8 52.6 38.5 57.4 40.1C59.4 42.3 61.8 44.2 64.5 45.5ZM55.4 53.2C54.9 53 54.3 53.2 53.9 53.6C53.5 54 53.4 54.6 53.5 55.1L54.4 58.2C52.6 58.6 50.6 58.1 49.3 56.8C48.3 55.8 47.7 54.4 47.7 52.9C47.7 51.4 48.3 50.1 49.3 49.1C51.4 47 54.9 47 57 49.1C58.4 50.5 58.9 52.4 58.4 54.2L55.4 53.2ZM23 91.3C14.7 91.3 8.00001 84.6 8.00001 76.3C8.00001 68 14.7 61.3 23 61.3C31.3 61.3 38 68 38 76.3C38 84.6 31.3 91.3 23 91.3ZM39.9 70C38.6 66.6 36.3 63.6 33.3 61.5C29.8 53.4 31.5 43.8 37.8 37.5C41.8 33.5 47.3 31.2 53 31.2C53.4 33 54.1 34.8 55 36.4C50.1 35.9 45 37.6 41.4 41.1C38.3 44.2 36.5 48.4 36.5 52.8C36.5 57.2 38.2 61.4 41.4 64.5C44.6 67.7 48.8 69.4 53.1 69.4C54.6 69.4 56.1 69.2 57.6 68.8L59.1 73.7C52.6 75.6 45.3 74.3 39.9 70ZM75.4 67.4C74.9 67.6 74.6 68 74.5 68.5C74.4 69 74.6 69.5 74.9 69.8L80.9 75.8L76.1 80.6L70.1 74.6C69.7 74.2 69.2 74.1 68.8 74.2C68.3 74.3 67.9 74.6 67.7 75.1L64.8 81.7L62.5 74.2L57.2 56.9L59 57.4L74.5 62.1L82 64.4L75.4 67.4ZM74 58.9L69.1 57.4C70.1 53.9 69.9 50.2 68.6 46.9C70.2 47.3 71.9 47.5 73.6 47.5H74.1C75.2 51.3 75.1 55.2 74 58.9ZM73.7 44.6C63.6 44.6 55.4 36.4 55.4 26.4C55.4 16.3 63.6 8.20001 73.7 8.20001C83.8 8.10001 92 16.3 92 26.3C92 36.4 83.8 44.6 73.7 44.6Z" fill="#8F61DB"/>
<path d="M74.1 24.8H73.3C72 24.8 70.9 23.7 70.9 22.4C70.9 21.8 71.2 21.2 71.6 20.7C72.1 20.2 72.7 20 73.3 20H73.8H77.9C78.7 20 79.4 19.3 79.4 18.5C79.4 17.7 78.7 17 77.8 17H75.3V14.7C75.3 13.9 74.6 13.2 73.8 13.2C73 13.2 72.3 13.9 72.3 14.7V17.1C71.2 17.3 70.3 17.8 69.5 18.6C68.5 19.6 67.9 21 67.9 22.4C67.9 25.4 70.3 27.8 73.3 27.8H74.1C75.4 27.8 76.5 28.9 76.5 30.2C76.5 31.5 75.4 32.6 74.1 32.6H69.4C68.6 32.6 67.9 33.3 67.9 34.1C67.9 34.9 68.6 35.6 69.4 35.6H72.3V38C72.3 38.8 73 39.5 73.8 39.5C74.6 39.5 75.3 38.8 75.3 38V35.6C77.7 35.1 79.5 32.9 79.5 30.3C79.5 27.3 77.1 24.8 74.1 24.8Z" fill="#8F61DB"/>
<path d="M36.8 24.9C41.8 24.9 45.8 20.9 45.8 15.9C45.8 10.9 41.8 6.90001 36.8 6.90001C31.8 6.90001 27.8 10.9 27.8 15.9C27.8 20.9 31.8 24.9 36.8 24.9ZM36.8 9.90001C40.1 9.90001 42.8 12.6 42.8 15.9C42.8 19.2 40.1 21.9 36.8 21.9C33.5 21.9 30.8 19.2 30.8 15.9C30.8 12.6 33.4 9.90001 36.8 9.90001Z" fill="#8F61DB"/>
<path d="M15.9 46.7C19.6 46.7 22.6 43.7 22.6 40C22.6 36.3 19.6 33.3 15.9 33.3C12.2 33.3 9.20001 36.3 9.20001 40C9.30001 43.7 12.2 46.7 15.9 46.7ZM15.9 36.3C17.9 36.3 19.6 37.9 19.6 40C19.6 42 18 43.7 15.9 43.7C13.8 43.7 12.3 42 12.3 40C12.3 38 13.9 36.3 15.9 36.3Z" fill="#8F61DB"/>
<path d="M23.4 74.8H22.7C21.7 74.8 20.9 74 20.9 73C20.9 72 21.7 71.2 22.7 71.2H23.1H26.5C27.3 71.2 28 70.5 28 69.7C28 68.9 27.3 68.2 26.5 68.2H24.6V66.5C24.6 65.7 23.9 65 23.1 65C22.3 65 21.6 65.7 21.6 66.5V68.3C19.5 68.8 17.9 70.7 17.9 72.9C17.9 75.5 20 77.7 22.7 77.7H23.4C24.4 77.7 25.2 78.5 25.2 79.5C25.2 80.5 24.4 81.3 23.4 81.3H19.5C18.7 81.3 18 82 18 82.8C18 83.6 18.7 84.3 19.5 84.3H21.7V86C21.7 86.8 22.4 87.5 23.2 87.5C24 87.5 24.7 86.8 24.7 86V84.2C26.7 83.6 28.2 81.8 28.2 79.6C28.1 77 26 74.8 23.4 74.8Z" fill="#8F61DB"/>
<path d="M51 82.4C47.5 82.4 44.7 85.2 44.7 88.7C44.7 92.2 47.5 95 51 95C54.5 95 57.3 92.2 57.3 88.7C57.3 85.2 54.4 82.4 51 82.4ZM51 91.9C49.2 91.9 47.7 90.4 47.7 88.6C47.7 86.8 49.2 85.3 51 85.3C52.8 85.3 54.3 86.8 54.3 88.6C54.3 90.4 52.8 91.9 51 91.9Z" fill="#8F61DB"/>
</svg>
