<svg width="100" height="100" viewBox="0 0 100 100" fill="none" xmlns="http://www.w3.org/2000/svg">
<path d="M12.5 9.375H15.625V12.5H12.5V9.375Z" fill="#F77B54"/>
<path d="M18.75 9.375H21.875V12.5H18.75V9.375Z" fill="#F77B54"/>
<path d="M25 9.375H28.125V12.5H25V9.375Z" fill="#F77B54"/>
<path d="M14.0625 43.75H39.0625C39.4769 43.75 39.8743 43.5854 40.1674 43.2924C40.4604 42.9993 40.625 42.6019 40.625 42.1875V26.5625C40.625 26.1481 40.4604 25.7507 40.1674 25.4576C39.8743 25.1646 39.4769 25 39.0625 25H14.0625C13.6481 25 13.2507 25.1646 12.9576 25.4576C12.6646 25.7507 12.5 26.1481 12.5 26.5625V42.1875C12.5 42.6019 12.6646 42.9993 12.9576 43.2924C13.2507 43.5854 13.6481 43.75 14.0625 43.75ZM15.625 28.125H37.5V40.625H15.625V28.125Z" fill="#F77B54"/>
<path d="M53.125 26.5625H78.125V29.6875H53.125V26.5625Z" fill="#F77B54"/>
<path d="M46.875 32.8125H75V35.9375H46.875V32.8125Z" fill="#F77B54"/>
<path d="M46.875 39.0625H68.75V42.1875H46.875V39.0625Z" fill="#F77B54"/>
<path d="M18.75 50H59.375V53.125H18.75V50Z" fill="#F77B54"/>
<path d="M12.5 56.25H53.125V59.375H12.5V56.25Z" fill="#F77B54"/>
<path d="M12.5 62.5H46.875V65.625H12.5V62.5Z" fill="#F77B54"/>
<path d="M12.5 68.75H46.875V71.875H12.5V68.75Z" fill="#F77B54"/>
<path d="M12.5 75H46.875V78.125H12.5V75Z" fill="#F77B54"/>
<path d="M12.5 50H15.625V53.125H12.5V50Z" fill="#F77B54"/>
<path d="M89.0625 12.5H87.5V10.9375C87.5 8.8655 86.6769 6.87836 85.2118 5.41323C83.7466 3.9481 81.7595 3.125 79.6875 3.125H10.9375C8.8655 3.125 6.87836 3.9481 5.41323 5.41323C3.9481 6.87836 3.125 8.8655 3.125 10.9375V79.6875C3.125 81.7595 3.9481 83.7466 5.41323 85.2118C6.87836 86.6769 8.8655 87.5 10.9375 87.5H12.5V89.0625C12.5 91.1345 13.3231 93.1216 14.7882 94.5868C16.2534 96.0519 18.2405 96.875 20.3125 96.875H89.0625C91.1345 96.875 93.1216 96.0519 94.5868 94.5868C96.0519 93.1216 96.875 91.1345 96.875 89.0625V20.3125C96.875 18.2405 96.0519 16.2534 94.5868 14.7882C93.1216 13.3231 91.1345 12.5 89.0625 12.5ZM86.2656 36.7812L92.9062 43.4219L88.4844 47.8438L81.8438 41.2031L86.2656 36.7812ZM58.0156 68.2031L59.25 65L64.6875 70.4375L61.4844 71.6719L58.0156 68.2031ZM58.2969 72.8906L55.8438 73.8438L56.7969 71.3906L58.2969 72.8906ZM63.0625 64.4062L60.8594 62.2031L79.6406 43.4219L81.8438 45.625L63.0625 64.4062ZM84.0625 47.8438L86.2656 50.0469L67.4844 68.8281L65.2812 66.625L84.0625 47.8438ZM6.25 10.9375C6.25371 9.69544 6.74876 8.50531 7.62704 7.62704C8.50531 6.74876 9.69544 6.25371 10.9375 6.25H79.6875C80.9296 6.25371 82.1197 6.74876 82.998 7.62704C83.8762 8.50531 84.3713 9.69544 84.375 10.9375V15.625H6.25V10.9375ZM10.9375 84.375C9.69544 84.3713 8.50531 83.8762 7.62704 82.998C6.74876 82.1197 6.25371 80.9296 6.25 79.6875V18.75H84.375V34.2656L57.5469 61.0937C57.3903 61.249 57.2679 61.4353 57.1875 61.6406L51.6719 76C51.5584 76.2816 51.5305 76.5904 51.5917 76.8878C51.6528 77.1851 51.8003 77.4579 52.0156 77.6719C52.3112 77.9633 52.7099 78.1262 53.125 78.125C53.3179 78.1266 53.5092 78.0894 53.6875 78.0156L68.0469 72.5C68.2522 72.4196 68.4385 72.2972 68.5938 72.1406L84.375 56.3594V79.6875C84.3713 80.9296 83.8762 82.1197 82.998 82.998C82.1197 83.8762 80.9296 84.3713 79.6875 84.375H10.9375ZM93.75 89.0625C93.7463 90.3046 93.2512 91.4947 92.373 92.373C91.4947 93.2512 90.3046 93.7463 89.0625 93.75H20.3125C19.0704 93.7463 17.8803 93.2512 17.002 92.373C16.1238 91.4947 15.6287 90.3046 15.625 89.0625V87.5H79.6875C81.7595 87.5 83.7466 86.6769 85.2118 85.2118C86.6769 83.7466 87.5 81.7595 87.5 79.6875V53.2344L93.75 46.9844V89.0625ZM93.75 39.8438L87.5 33.5938V28.125H93.75V39.8438ZM93.75 25H87.5V15.625H89.0625C90.3046 15.6287 91.4947 16.1238 92.373 17.002C93.2512 17.8803 93.7463 19.0704 93.75 20.3125V25Z" fill="#F77B54"/>
<path d="M46.875 26.5625H50V29.6875H46.875V26.5625Z" fill="#F77B54"/>
</svg>
