<svg width="49" height="49" viewBox="0 0 49 49" fill="none" xmlns="http://www.w3.org/2000/svg">
<circle cx="24.4922" cy="24.4922" r="23.7719" stroke="white" stroke-width="1.44072"/>
<g clip-path="url(#clip0_1_1390)">
<path d="M38.0994 22.2755L26.3463 22.2749C25.8273 22.2749 25.4066 22.6955 25.4066 23.2145V26.9691C25.4066 27.488 25.8273 27.9087 26.3462 27.9087H32.9649C32.2401 29.7896 30.8874 31.3648 29.1616 32.3656L31.9838 37.2511C36.5109 34.6328 39.1874 30.0389 39.1874 24.8963C39.1874 24.1641 39.1334 23.6407 39.0255 23.0513C38.9434 22.6035 38.5546 22.2755 38.0994 22.2755Z" fill="#167EE6"/>
<path d="M24.7802 33.5501C21.5412 33.5501 18.7135 31.7804 17.1948 29.1616L12.3096 31.9774C14.7957 36.2862 19.4529 39.1877 24.7802 39.1877C27.3936 39.1877 29.8595 38.4841 31.9838 37.2578V37.2512L29.1616 32.3656C27.8707 33.1144 26.3768 33.5501 24.7802 33.5501Z" fill="#12B347"/>
<path d="M31.9842 37.2579V37.2512L29.162 32.3657C27.8711 33.1144 26.3774 33.5502 24.7806 33.5502V39.1878C27.394 39.1878 29.86 38.4842 31.9842 37.2579Z" fill="#0F993E"/>
<path d="M16.0107 24.7804C16.0107 23.1838 16.4464 21.6902 17.1949 20.3993L12.3096 17.5835C11.0766 19.7011 10.373 22.1603 10.373 24.7804C10.373 27.4005 11.0766 29.8597 12.3096 31.9773L17.1949 29.1615C16.4464 27.8706 16.0107 26.377 16.0107 24.7804Z" fill="#FFD500"/>
<path d="M24.7802 16.0109C26.8924 16.0109 28.8325 16.7614 30.3479 18.0098C30.7217 18.3178 31.2651 18.2956 31.6076 17.9531L34.2678 15.2928C34.6564 14.9043 34.6287 14.2683 34.2136 13.9082C31.6746 11.7056 28.3711 10.3733 24.7802 10.3733C19.4529 10.3733 14.7957 13.2748 12.3096 17.5836L17.1948 20.3994C18.7135 17.7806 21.5412 16.0109 24.7802 16.0109Z" fill="#FF4B26"/>
<path d="M30.3483 18.0098C30.7221 18.3178 31.2656 18.2956 31.608 17.9531L34.2682 15.2928C34.6567 14.9043 34.629 14.2683 34.214 13.9082C31.675 11.7055 28.3715 10.3733 24.7806 10.3733V16.0109C26.8927 16.0109 28.8329 16.7614 30.3483 18.0098Z" fill="#D93F21"/>
</g>
<defs>
<clipPath id="clip0_1_1390">
<rect width="28.8144" height="28.8144" fill="white" transform="translate(10.373 10.3733)"/>
</clipPath>
</defs>
</svg>
