<svg width="50" height="49" viewBox="0 0 50 49" fill="none" xmlns="http://www.w3.org/2000/svg">
<circle cx="25.4454" cy="24.4922" r="23.7719" stroke="white" stroke-width="1.44072"/>
<g clip-path="url(#clip0_1_1370)">
<path d="M39.5646 16.2034C38.5359 16.6547 37.4398 16.9538 36.297 17.099C37.4727 16.3971 38.37 15.2941 38.7918 13.9646C37.6957 14.6181 36.4855 15.0797 35.1958 15.3373C34.155 14.2291 32.6716 13.5427 31.0534 13.5427C27.9138 13.5427 25.3862 16.0911 25.3862 19.2151C25.3862 19.6646 25.4242 20.0968 25.5176 20.5083C20.803 20.2784 16.6312 18.0188 13.8287 14.5766C13.3395 15.4255 13.0525 16.3971 13.0525 17.443C13.0525 19.407 14.0639 21.148 15.5714 22.1559C14.6603 22.1386 13.7665 21.8741 13.0092 21.4575C13.0092 21.4748 13.0092 21.4972 13.0092 21.5197C13.0092 24.2755 14.975 26.5645 17.5527 27.0918C17.0911 27.218 16.588 27.2785 16.0659 27.2785C15.7028 27.2785 15.3363 27.2578 14.9923 27.1817C15.727 29.4275 17.812 31.0786 20.2912 31.1322C18.3618 32.6415 15.912 33.5509 13.2599 33.5509C12.7949 33.5509 12.3488 33.5301 11.9028 33.4731C14.4148 35.093 17.3919 36.018 20.6024 36.018C31.0378 36.018 36.7431 27.3736 36.7431 19.8807C36.7431 19.6301 36.7344 19.388 36.7223 19.1477C37.8478 18.349 38.7935 17.3514 39.5646 16.2034Z" fill="#03A9F4"/>
</g>
<defs>
<clipPath id="clip0_1_1370">
<rect width="27.6618" height="27.6618" fill="white" transform="translate(11.9026 10.9495)"/>
</clipPath>
</defs>
</svg>
