<svg width="90" height="77" viewBox="0 0 90 77" fill="none" xmlns="http://www.w3.org/2000/svg">
<path d="M23.6503 76L2 38.5L23.6503 1H66.9517L88.6027 38.5L66.9517 76H23.6503Z" fill="white" stroke="#6041B7" stroke-width="2" stroke-miterlimit="10"/>
<path d="M56.4466 23.0381H34.0556C33.6407 23.0381 33.3048 22.7022 33.3048 22.2873C33.3048 21.8723 33.6407 21.5364 34.0556 21.5364H56.4466C56.8615 21.5364 57.1974 21.8723 57.1974 22.2873C57.1974 22.7022 56.8615 23.0381 56.4466 23.0381Z" fill="#6041B7"/>
<path d="M56.4466 26.6031H34.0556C33.6407 26.6031 33.3048 26.2672 33.3048 25.8522C33.3048 25.4372 33.6407 25.1013 34.0556 25.1013H56.4466C56.8615 25.1013 57.1974 25.4372 57.1974 25.8522C57.1974 26.2672 56.8615 26.6031 56.4466 26.6031Z" fill="#6041B7"/>
<path d="M56.4466 30.1686H34.0556C33.6407 30.1686 33.3048 29.8327 33.3048 29.4177C33.3048 29.0028 33.6407 28.6669 34.0556 28.6669H56.4466C56.8615 28.6669 57.1974 29.0028 57.1974 29.4177C57.1974 29.8327 56.8615 30.1686 56.4466 30.1686Z" fill="#6041B7"/>
<path d="M56.4466 33.7343H34.0556C33.6407 33.7343 33.3048 33.3984 33.3048 32.9834C33.3048 32.5685 33.6407 32.2325 34.0556 32.2325H56.4466C56.8615 32.2325 57.1974 32.5685 57.1974 32.9834C57.1974 33.3984 56.8615 33.7343 56.4466 33.7343Z" fill="#6041B7"/>
<path d="M60.6173 34.8165C60.0984 34.8165 59.6791 34.3971 59.6791 33.8783V20.9443C59.6791 20.3793 59.2195 19.9189 58.6545 19.9189H31.8482C31.2833 19.9189 30.8237 20.3793 30.8237 20.9443V33.8783C30.8237 34.3971 30.4043 34.8165 29.8855 34.8165C29.3666 34.8165 28.9472 34.3971 28.9472 33.8783V20.9443C28.9472 19.3444 30.2484 18.0425 31.8482 18.0425H58.6545C60.2543 18.0425 61.5555 19.3444 61.5555 20.9443V33.8783C61.5555 34.3964 61.1354 34.8165 60.6173 34.8165Z" fill="#6041B7"/>
<path d="M21.3456 27.8897L26.9816 23.6471C27.2502 23.4451 27.6337 23.6369 27.6337 23.9721V32.3884C27.6337 32.7228 27.2531 32.9145 26.9846 32.7155L21.3486 28.5417C21.1297 28.38 21.1283 28.0536 21.3456 27.8897Z" fill="#6041B7"/>
<path d="M63.6093 23.9783L69.2277 27.8937C69.4561 28.0526 69.4612 28.3892 69.2372 28.5546L63.6188 32.7159C63.3502 32.915 62.9697 32.7232 62.9697 32.3888V24.3121C62.9697 23.9835 63.34 23.7903 63.6093 23.9783Z" fill="#6041B7"/>
<path d="M20.9103 31.2706V57.9414C20.9103 58.3088 21.3582 58.4881 21.6114 58.2224L36.607 42.5038C36.7768 42.3259 36.7512 42.039 36.5529 41.8941L21.5572 30.942C21.2886 30.7458 20.9103 30.9376 20.9103 31.2706Z" fill="#6041B7"/>
<path d="M69.6933 31.2712V57.942C69.6933 58.3094 69.2454 58.4887 68.9922 58.223L53.9966 42.5044C53.8268 42.3265 53.8524 42.0396 54.0508 41.8947L69.0464 30.9426C69.315 30.7465 69.6933 30.9382 69.6933 31.2712Z" fill="#6041B7"/>
<path d="M44.8197 36.3432L23.8222 58.2694C23.5741 58.5285 23.7578 58.9581 24.1164 58.9581H66.1122C66.4708 58.9581 66.6538 58.5285 66.4064 58.2694L45.4089 36.3432C45.2472 36.1756 44.98 36.1756 44.8197 36.3432Z" fill="#6041B7"/>
</svg>
